# xmcd CD database file
#
# Track frame offsets:
#	150
#	28983
#	65087
#	89927
#	120851
#	139220
#	165722
#	185755
#	214890
#	237806
#	251546
#	270723
#
# Disc length: 3846 seconds
#
# Revision: 0
# Processed by: cddbd v1.5.2PL0 Copyright (c) Steve Scherf et al.
# Submitted via: CDex 1.70beta2
#
DISCID=b90f040c
DTITLE=Paolo Fresu Devil Quartet - Desertico
DYEAR=1900
DGENRE=Jazz
TTITLE0=I can 't get no Satisfaction
TTITLE1=La follia italiana
TTITLE2=Ambre
TTITLE3=All items
TTITLE4=Blame it on my youht
TTITLE5=Desertico
TTITLE6=Suite for devil
TTITLE7=Poetto's sky
TTITLE8=Voci oltre
TTITLE9=Young forever
TTITLE10=A ninna nanna for Andrea
TTITLE11=Inno alla vita
EXTD=
EXTT0=
EXTT1=
EXTT2=
EXTT3=
EXTT4=
EXTT5=
EXTT6=
EXTT7=
EXTT8=
EXTT9=
EXTT10=
EXTT11=
PLAYORDER=
